<?xml version="1.0" encoding="UTF-8"?>
<!DOCTYPE svg  PUBLIC '-//W3C//DTD SVG 1.1//EN'  'http://www.w3.org/Graphics/SVG/1.1/DTD/svg11.dtd'>
<svg width="377.34px" height="377.34px" enable-background="new 0 0 377.343 377.343" version="1.1" viewBox="0 0 377.343 377.343" xml:space="preserve" xmlns="http://www.w3.org/2000/svg">
	<path d="m301.69 53.505h-226.04c-10.876 0-19.725 8.843-19.725 19.713v230.9c0 10.878 8.843 19.727 19.725 19.727h226.04c10.873 0 19.722-8.843 19.722-19.727v-230.9c-6e-3 -10.87-8.85-19.713-19.723-19.713zm-109.45 97.475l-57.806 75.188c-0.584 0.757-1.49 1.197-2.438 1.197-0.952 7e-3 -1.853-0.44-2.43-1.197l-57.799-75.188c-0.432-0.561-0.646-1.22-0.64-1.871 0-0.637 0.203-1.289 0.616-1.844 0.818-1.102 2.288-1.519 3.57-1.013l38.282 15.123v-88.606c0-1.69 1.368-3.081 3.064-3.064h30.679c1.691-5e-3 3.059 1.374 3.07 3.07l-0.012 88.601 38.278-15.117c1.282-0.507 2.738-0.091 3.575 1.012 0.841 1.099 0.841 2.612-9e-3 3.709zm146.44-150.98h-300.02c-19.568 0-35.436 15.869-35.436 35.434v306.46c0 19.581 15.869 35.447 35.437 35.447h300.02c19.568 0 35.436-15.866 35.436-35.447v-306.46c-2e-3 -19.565-15.869-35.434-35.442-35.434zm-3.296 304.12c0 18.572-15.113 33.691-33.691 33.691h-226.04c-18.576 0-33.695-15.114-33.695-33.691v-230.9c0-18.569 15.114-33.688 33.695-33.688h226.04c18.572 0 33.691 15.114 33.691 33.688v230.9z"/>
</svg>
