<?xml version="1.0" encoding="UTF-8"?>
<!DOCTYPE svg  PUBLIC '-//W3C//DTD SVG 1.1//EN'  'http://www.w3.org/Graphics/SVG/1.1/DTD/svg11.dtd'>
<svg width="419.9px" height="419.9px" enable-background="new 0 0 419.901 419.901" version="1.1" viewBox="0 0 419.901 419.901" xml:space="preserve" xmlns="http://www.w3.org/2000/svg">
	<path d="m335.73 59.54h-251.54c-12.102 0-21.942 9.84-21.942 21.936v256.95c0 12.105 9.84 21.951 21.942 21.951h251.54c12.093 0 21.934-9.84 21.934-21.951v-256.95c-1e-3 -12.096-9.842-21.936-21.934-21.936zm-72.93 99.104l-83.671 64.322c-0.624 0.481-1.361 0.719-2.083 0.713-0.712 0-1.434-0.225-2.052-0.688-1.23-0.908-1.69-2.539-1.13-3.971l16.831-42.6h-98.599c-1.885 0-3.431-1.522-3.413-3.41v-34.139c-6e-3 -1.885 1.528-3.404 3.419-3.419l98.592 0.015-16.824-42.6c-0.56-1.428-0.101-3.051 1.129-3.979 1.221-0.929 2.911-0.929 4.135 0.012l83.665 64.323c0.84 0.648 1.333 1.659 1.333 2.712-5e-3 1.068-0.504 2.072-1.332 2.709zm114.08-158.64h-333.85c-21.775 0-39.44 17.658-39.44 39.43v341.03c0 21.787 17.665 39.445 39.439 39.445h333.85c21.775 0 39.439-17.658 39.439-39.445v-341.03c1e-3 -21.772-17.663-39.43-39.438-39.43zm-3.666 338.42c0 20.666-16.818 37.491-37.484 37.491h-251.54c-20.67 0-37.494-16.818-37.494-37.491v-256.95c0-20.663 16.818-37.488 37.494-37.488h251.54c20.66 0 37.484 16.818 37.484 37.488v256.95z"/>
</svg>
