<?xml version="1.0" encoding="UTF-8"?>
<!DOCTYPE svg  PUBLIC '-//W3C//DTD SVG 1.1//EN'  'http://www.w3.org/Graphics/SVG/1.1/DTD/svg11.dtd'>
<svg width="377.34px" height="377.34px" enable-background="new 0 0 377.338 377.338" version="1.1" viewBox="0 0 377.338 377.338" xml:space="preserve" xmlns="http://www.w3.org/2000/svg">
	<path d="m301.69 53.505h-226.04c-10.875 0-19.724 8.843-19.724 19.713v230.9c0 10.873 8.843 19.722 19.724 19.722h226.04c10.873 0 19.722-8.844 19.722-19.722v-230.9c-7e-3 -10.87-8.849-19.713-19.722-19.713zm-223.1 81.087l75.189-57.792c0.561-0.438 1.224-0.646 1.873-0.646 0.64 0 1.289 0.208 1.843 0.624 1.104 0.81 1.519 2.284 1.015 3.568l-15.124 38.282h88.599c1.69 0 3.081 1.368 3.063 3.065v30.679c6e-3 1.688-1.373 3.053-3.069 3.064l-88.6-0.011 15.12 38.285c0.502 1.28 0.086 2.746-1.015 3.578-1.106 0.831-2.62 0.831-3.717-0.011l-75.178-57.817c-0.756-0.588-1.2-1.488-1.2-2.44 1e-3 -0.956 0.45-1.852 1.201-2.428zm260.09-134.59h-300.02c-19.567 0-35.437 15.869-35.437 35.434v306.46c0 19.573 15.87 35.442 35.437 35.442h300.02c19.569 0 35.437-15.869 35.437-35.442v-306.46c-1e-3 -19.565-15.868-35.434-35.441-35.434zm-3.296 304.12c0 18.572-15.113 33.691-33.691 33.691h-226.04c-18.574 0-33.694-15.114-33.694-33.691v-230.9c0-18.569 15.114-33.688 33.694-33.688h226.04c18.572 0 33.691 15.114 33.691 33.688v230.9z"/>
</svg>
